<svg width="144" height="32" viewBox="0 0 144 32" fill="none" xmlns="http://www.w3.org/2000/svg">
<path fill-rule="evenodd" clip-rule="evenodd" d="M29.0059 1.48908C29.3072 1.77783 29.5455 2.12469 29.706 2.50821C29.8664 2.89173 29.9457 3.30375 29.9388 3.71879V3.79892C29.9354 4.20316 29.8512 4.60272 29.6911 4.97463C29.5309 5.34653 29.2981 5.68343 29.0059 5.96593C28.7141 6.26414 28.3636 6.49994 27.9761 6.65874C27.5886 6.81754 27.1722 6.89597 26.7528 6.88917C25.9157 6.89391 25.1103 6.57237 24.5108 5.99409C23.9113 5.41581 23.5659 4.62725 23.5492 3.79892V3.71879C23.5424 3.30375 23.6216 2.89173 23.7821 2.50821C23.9426 2.12469 24.1808 1.77783 24.4822 1.48908C24.778 1.19136 25.1317 0.956053 25.522 0.797373C25.9122 0.638694 26.331 0.55993 26.7528 0.565837C27.1722 0.559039 27.5886 0.637466 27.9761 0.796268C28.3636 0.955069 28.7141 1.19087 29.0059 1.48908Z" fill="#EB5C60"/>
<path fill-rule="evenodd" clip-rule="evenodd" d="M143.332 25.8939V31.0327H127.613V3.71873H134.003V25.8939H143.332ZM112.563 3.71873L123.618 31.0327H117.545L115.38 25.1797H104.079L101.897 31.0327H95.9646L106.984 3.71873H112.563ZM105.839 20.4242H113.62L109.747 9.97238L105.839 20.4242ZM85.7025 3.71873H92.0217V31.0327H86.7763L73.029 14.4666V31.0327H66.6922V3.71873H71.9728L85.7025 20.2848V3.71873ZM50.2518 8.63107C48.997 8.61457 47.7498 8.82716 46.5729 9.25817C45.507 9.65418 44.5359 10.2652 43.7214 11.0524C42.9098 11.8322 42.2791 12.7772 41.8731 13.8221C41.4339 14.9556 41.2187 16.162 41.2395 17.3757C41.2183 18.5839 41.4335 19.7847 41.8731 20.9119C42.2884 21.9572 42.9176 22.9061 43.7214 23.6991C44.5215 24.4916 45.481 25.1088 46.5377 25.5107C47.7021 25.9429 48.9379 26.1557 50.1814 26.1378C51.4334 26.1391 52.6769 25.933 53.8602 25.5281C54.3021 25.3745 54.7316 25.1882 55.1452 24.9707V16.9577H60.9715V28.0191C59.393 29.1719 57.6241 30.0442 55.7436 30.5972C53.8233 31.1911 51.8237 31.4964 49.8117 31.5031C47.7686 31.5244 45.7393 31.17 43.827 30.4579C42.0451 29.807 40.4117 28.8122 39.0216 27.5314C37.6808 26.2547 36.6098 24.727 35.8708 23.0371C35.1165 21.2441 34.7392 19.3178 34.7619 17.3757C34.7589 16.5593 34.8201 15.744 34.9449 14.937C35.541 14.4991 36.1035 14.0182 36.6277 13.4981C38.7086 11.4883 40.0685 8.8603 40.5002 6.01464C41.5338 5.29269 42.6581 4.70711 43.8446 4.27267C45.7829 3.56818 47.835 3.21988 49.8997 3.24491C52.1619 3.23814 54.4058 3.64565 56.5181 4.44687C57.133 4.67107 57.7327 4.93407 58.3136 5.23423C58.5142 5.33875 58.8839 5.55476 59.4225 5.87876V11.7143C58.5515 11.0783 57.6336 10.5077 56.6766 10.0072C56.047 9.70996 55.3934 9.46523 54.7227 9.27559C54.0066 9.07486 53.2773 8.92353 52.5401 8.82268C51.7832 8.70243 51.0183 8.63838 50.2518 8.63107ZM23.5493 17.1841C24.6182 17.4203 25.7105 17.5372 26.8057 17.5325C27.8586 17.5358 28.9089 17.4283 29.9389 17.212V31.0327H23.5493V17.1841ZM18.9199 23.2531C18.9002 24.6337 18.5246 25.9864 17.8286 27.183C17.0131 28.6555 15.7371 29.8266 14.192 30.5206C12.4005 31.3628 10.4165 31.7233 8.43959 31.5658C6.27804 31.4334 4.52369 31.0652 3.17654 30.4614C2.19694 30.053 1.26647 29.5377 0.40244 28.925V22.3055C1.61641 23.4505 3.00229 24.4024 4.51079 25.1275C6.00814 25.8428 7.19336 26.2377 8.06642 26.312C8.90536 26.3895 9.75153 26.3067 10.5589 26.0681C11.2202 25.8837 11.8172 25.522 12.2839 25.023C12.641 24.5974 12.8343 24.0605 12.8296 23.5074C12.8398 23.1672 12.7679 22.8294 12.6197 22.5222C12.4715 22.215 12.2514 21.9472 11.9776 21.7411C11.3027 21.2336 10.5658 20.8122 9.7844 20.4869C8.90077 20.1002 7.92209 19.6995 6.8554 19.2849C5.85325 18.9 4.88924 18.4242 3.97568 17.8635C3.15644 17.3599 2.42524 16.7281 1.81061 15.9926C1.24114 15.3184 0.839593 14.5212 0.638309 13.6653C0.43587 12.8442 0.333052 12.0021 0.332031 11.1569C0.372536 10.1279 0.586718 9.11284 0.965709 8.15377C1.45301 6.93232 2.26868 5.86607 3.3244 5.07049C4.46502 4.1577 6.02809 3.63163 8.01362 3.48182C9.62862 3.35187 11.2539 3.43387 12.8472 3.72569C12.8252 5.7087 13.2358 7.67306 14.0512 9.48463C13.4715 9.22855 12.8752 9.01091 12.2663 8.83313C11.3068 8.51285 10.2964 8.36765 9.28449 8.40461C8.71923 8.42678 8.16199 8.54462 7.63693 8.753C7.35858 8.87911 7.11026 9.06194 6.9082 9.28953C6.73833 9.49134 6.59518 9.71379 6.48223 9.95147C6.36559 10.2148 6.28052 10.4908 6.22876 10.7737C6.16602 11.1268 6.15417 11.4869 6.19355 11.8432C6.23925 12.1647 6.35521 12.4724 6.53335 12.745C6.71149 13.0175 6.94754 13.2484 7.22504 13.4215C7.88832 13.9001 8.62537 14.2695 9.40771 14.5154C10.2245 14.7848 11.2806 15.1658 12.5761 15.6581C13.7442 16.074 14.8577 16.6272 15.8923 17.306C16.8178 17.9556 17.5645 18.8239 18.0645 19.8319C18.6125 20.8917 18.9053 22.0627 18.9199 23.2531Z" fill="white"/>
</svg>
