<svg width="92" height="19" viewBox="0 0 92 19" fill="none" xmlns="http://www.w3.org/2000/svg">
<g clip-path="url(#clip0_185_1815)">
<path d="M10.2245 4.58887H0.103516V15.3889H2.92053V11.8752H8.31834L10.7812 15.3889H13.9355L11.2197 11.8591C12.0632 11.7295 12.6704 11.4219 13.0415 10.9361C13.4126 10.4504 13.5982 9.67315 13.5982 8.63685V7.82728C13.5982 7.21196 13.5307 6.72622 13.4126 6.35377C13.2945 5.98137 13.0921 5.65753 12.8054 5.36608C12.5017 5.09082 12.1644 4.89652 11.7595 4.76697C11.3547 4.65363 10.8486 4.58887 10.2245 4.58887ZM9.7691 9.49502H2.92053V6.96906H9.7691C10.1571 6.96906 10.4269 7.03384 10.5619 7.14718C10.6968 7.26051 10.7812 7.47103 10.7812 7.77868V8.68545C10.7812 9.00931 10.6968 9.21976 10.5619 9.33309C10.4269 9.44642 10.1571 9.49502 9.7691 9.49502Z" fill="#F2F2F2"/>
<path d="M18.1261 12.1991V4.58887H15.3906V12.1343C15.3906 12.7496 15.4398 13.2515 15.5544 13.6239C15.6691 14.0126 15.8656 14.3364 16.1605 14.6117C16.4389 14.9032 16.7665 15.0974 17.1597 15.2107C17.5528 15.3403 18.0442 15.3889 18.6666 15.3889H25.2186C25.8247 15.3889 26.3161 15.3403 26.7092 15.2107C27.1023 15.0974 27.4299 14.9032 27.7248 14.6117C28.0032 14.3364 28.1998 14.0126 28.3144 13.6239C28.4292 13.2515 28.4946 12.7496 28.4946 12.1343V4.58887H25.7592V12.1991C25.7592 12.5229 25.6773 12.7334 25.5462 12.8468C25.4152 12.9601 25.1531 13.0086 24.7764 13.0086H19.1089C18.7158 13.0086 18.4537 12.9601 18.3226 12.8468C18.1916 12.7334 18.1261 12.5229 18.1261 12.1991Z" fill="#F2F2F2"/>
<path d="M37.849 15.3889V6.96906H43.0552V4.58887H29.9512V6.96906H35.1572V15.3889H37.849Z" fill="#F2F2F2"/>
<path d="M47.2472 12.1991V4.58887H44.5117V12.1343C44.5117 12.7496 44.5609 13.2515 44.6755 13.6239C44.7902 14.0126 44.9867 14.3364 45.2816 14.6117C45.56 14.9032 45.8876 15.0974 46.2808 15.2107C46.6739 15.3403 47.1653 15.3889 47.7877 15.3889H54.3397C54.9458 15.3889 55.4372 15.3403 55.8303 15.2107C56.2234 15.0974 56.551 14.9032 56.8459 14.6117C57.1243 14.3364 57.3209 14.0126 57.4355 13.6239C57.5502 13.2515 57.6157 12.7496 57.6157 12.1343V4.58887H54.8803V12.1991C54.8803 12.5229 54.7984 12.7334 54.6673 12.8468C54.5362 12.9601 54.2742 13.0086 53.8975 13.0086H48.23C47.8369 13.0086 47.5748 12.9601 47.4437 12.8468C47.3127 12.7334 47.2472 12.5229 47.2472 12.1991Z" fill="#F2F2F2"/>
<path d="M71.6332 7.73008V7.51963C71.6332 6.51572 71.3709 5.77088 70.8456 5.30131C70.3209 4.83174 69.4846 4.58887 68.3696 4.58887H59.0703V15.3889H68.9106C70.0257 15.3889 70.862 15.1622 71.3873 14.6926C71.912 14.223 72.1743 13.4782 72.1743 12.4744V12.2477C72.1743 11.2438 71.912 10.5313 71.3873 10.1103C71.2887 10.0455 71.1901 9.99693 71.0921 9.9484C70.9935 9.8998 70.8456 9.83508 70.6655 9.77028C71.0263 9.57595 71.2722 9.31689 71.4196 9.02543C71.5511 8.73398 71.6332 8.2968 71.6332 7.73008ZM61.8093 8.91211V6.96906H67.9264C68.3202 6.96906 68.5826 7.03384 68.7141 7.14718C68.8449 7.26051 68.9106 7.47103 68.9106 7.77868V8.10254C68.9106 8.4264 68.8449 8.63685 68.7141 8.75018C68.5826 8.86358 68.3202 8.91211 67.9264 8.91211H61.8093ZM61.8093 13.0086V11.0656H68.484C68.8613 11.0656 69.1237 11.1304 69.2551 11.2438C69.386 11.3571 69.4682 11.5676 69.4682 11.8752V12.1991C69.4682 12.5229 69.386 12.7334 69.2551 12.8468C69.1237 12.9601 68.8613 13.0086 68.484 13.0086H61.8093Z" fill="#F2F2F2"/>
<path d="M76.4261 6.96906H85.5575V4.58887H73.6328V15.3889H86.0088V13.0086H76.4261V11.179H85.3398L85.5575 8.79878H76.4261V6.96906Z" fill="#F2F2F2"/>
<path d="M88.6886 4.05024C89.7413 4.05024 90.5952 3.20368 90.5952 2.1594C90.5952 1.11512 89.7413 0.268555 88.6886 0.268555C87.6352 0.268555 86.7812 1.11512 86.7812 2.1594C86.7812 3.20368 87.6352 4.05024 88.6886 4.05024Z" fill="#F41240"/>
</g>
<defs>
<clipPath id="clip0_185_1815">
<rect width="91" height="18" fill="white" transform="translate(0.103516 0.268555)"/>
</clipPath>
</defs>
</svg>
