<svg width="142" height="50" viewBox="0 0 142 50" fill="none" xmlns="http://www.w3.org/2000/svg">
<rect x="0.537109" width="140.714" height="50" rx="25" fill="black"/>
<g clip-path="url(#clip0_202_2875)">
<path d="M28.4862 19.5999H16.252V32.8856H19.6571V28.5633H26.182L29.159 32.8856H32.972L29.6891 28.5434C30.7087 28.3841 31.4427 28.0056 31.8913 27.408C32.3398 26.8105 32.5642 25.8544 32.5642 24.5796V23.5837C32.5642 22.8267 32.4827 22.2292 32.3398 21.771C32.1971 21.3129 31.9525 20.9145 31.6058 20.556C31.2388 20.2174 30.831 19.9784 30.3416 19.819C29.8523 19.6796 29.2405 19.5999 28.4862 19.5999ZM27.9356 25.6353H19.6571V22.5279H27.9356C28.4046 22.5279 28.7308 22.6076 28.8939 22.747C29.057 22.8865 29.159 23.1454 29.159 23.5239V24.6394C29.159 25.0378 29.057 25.2967 28.8939 25.4361C28.7308 25.5755 28.4046 25.6353 27.9356 25.6353Z" fill="#FBFBFB"/>
<path d="M38.039 28.9616V19.5999H34.7324V28.882C34.7324 29.6388 34.7918 30.2563 34.9304 30.7144C35.069 31.1925 35.3066 31.5908 35.663 31.9295C35.9996 32.2881 36.3956 32.527 36.8708 32.6664C37.346 32.8259 37.94 32.8856 38.6924 32.8856H46.6124C47.345 32.8856 47.939 32.8259 48.4142 32.6664C48.8894 32.527 49.2854 32.2881 49.6418 31.9295C49.9784 31.5908 50.216 31.1925 50.3546 30.7144C50.4933 30.2563 50.5724 29.6388 50.5724 28.882V19.5999H47.2658V28.9616C47.2658 29.36 47.1668 29.619 47.0084 29.7584C46.85 29.8978 46.5332 29.9575 46.0778 29.9575H39.227C38.7518 29.9575 38.435 29.8978 38.2766 29.7584C38.1182 29.619 38.039 29.36 38.039 28.9616Z" fill="#FBFBFB"/>
<path d="M61.8789 32.8856V22.5279H68.172V19.5999H52.332V22.5279H58.6251V32.8856H61.8789Z" fill="#FBFBFB"/>
<path d="M73.2382 28.9616V19.5999H69.9316V28.882C69.9316 29.6388 69.9911 30.2563 70.1296 30.7144C70.2682 31.1925 70.5058 31.5908 70.8622 31.9295C71.1988 32.2881 71.5948 32.527 72.07 32.6664C72.5452 32.8259 73.1392 32.8856 73.8916 32.8856H81.8116C82.5442 32.8856 83.1382 32.8259 83.6134 32.6664C84.0886 32.527 84.4846 32.2881 84.841 31.9295C85.1776 31.5908 85.4152 31.1925 85.5538 30.7144C85.6924 30.2563 85.7716 29.6388 85.7716 28.882V19.5999H82.465V28.9616C82.465 29.36 82.366 29.619 82.2076 29.7584C82.0491 29.8978 81.7324 29.9575 81.277 29.9575H74.4262C73.951 29.9575 73.6342 29.8978 73.4758 29.7584C73.3174 29.619 73.2382 29.36 73.2382 28.9616Z" fill="#FBFBFB"/>
<path d="M102.719 23.464V23.2052C102.719 21.9702 102.402 21.0539 101.767 20.4763C101.133 19.8986 100.122 19.5999 98.7741 19.5999H87.5332V32.8856H99.4281C100.776 32.8856 101.787 32.6067 102.422 32.0291C103.056 31.4514 103.373 30.5351 103.373 29.3003V29.0214C103.373 27.7864 103.056 26.91 102.422 26.3921C102.303 26.3124 102.184 26.2526 102.065 26.1929C101.946 26.1331 101.767 26.0535 101.549 25.9738C101.986 25.7348 102.283 25.4161 102.461 25.0575C102.62 24.699 102.719 24.1612 102.719 23.464ZM90.8441 24.9181V22.5279H98.2384C98.7144 22.5279 99.0315 22.6076 99.1905 22.747C99.3486 22.8864 99.4281 23.1454 99.4281 23.5238V23.9222C99.4281 24.3206 99.3486 24.5795 99.1905 24.7189C99.0315 24.8584 98.7144 24.9181 98.2384 24.9181H90.8441ZM90.8441 29.9575V27.5673H98.9124C99.3685 27.5673 99.6856 27.6469 99.8445 27.7864C100.003 27.9258 100.102 28.1848 100.102 28.5632V28.9616C100.102 29.36 100.003 29.619 99.8445 29.7584C99.6856 29.8978 99.3685 29.9575 98.9124 29.9575H90.8441Z" fill="#FBFBFB"/>
<path d="M108.509 22.5279H119.547V19.5999H105.133V32.8856H120.093V29.9575H108.509V27.7068H119.284L119.547 24.7787H108.509V22.5279Z" fill="#FBFBFB"/>
<path d="M123.333 18.9377C124.605 18.9377 125.638 17.8963 125.638 16.6117C125.638 15.327 124.605 14.2856 123.333 14.2856C122.06 14.2856 121.027 15.327 121.027 16.6117C121.027 17.8963 122.06 18.9377 123.333 18.9377Z" fill="#F41240"/>
</g>
<defs>
<clipPath id="clip0_202_2875">
<rect width="110" height="22.1429" fill="white" transform="translate(16.252 14.2856)"/>
</clipPath>
</defs>
</svg>
